name analog
datacolumns 19
datarows 34
range 0.498 0.5145
endheader
time	ground_force_vx	ground_force_vy	ground_force_vz	ground_force_px	ground_force_py	ground_force_pz	l_ground_force_vx	l_ground_force_vy	l_ground_force_vz	l_ground_force_px	l_ground_force_py	l_ground_force_pz	ground_torque_x	ground_torque_y	ground_torque_z	l_ground_torque_x	l_ground_torque_y	l_ground_torque_z
0.498	-0.0	-0.0	-0.0	-0.0	-0.0	-0.0	-11.253457069396973	-7.165276527404785	-732.3823852539062	-0.0	-0.0	-0.0	-0.0	-0.0	-0.0	228312.3125	29835.2578125	-5175.78759765625
0.4985	-0.0	-0.0	-0.0	-0.0	-0.0	-0.0	-10.86917781829834	-7.23958158493042	-729.0396728515625	-0.0	-0.0	-0.0	-0.0	-0.0	-0.0	227029.640625	29627.80859375	-5021.3828125
0.499	-0.0	-0.0	-0.0	-0.0	-0.0	-0.0	-10.698593139648438	-7.263443946838379	-725.6661376953125	-0.0	-0.0	-0.0	-0.0	-0.0	-0.0	226124.59375	29413.63671875	-4982.3515625
0.4995	-0.0	-0.0	-0.0	-0.0	-0.0	-0.0	-10.466069221496582	-6.712448120117188	-722.4783325195312	-0.0	-0.0	-0.0	-0.0	-0.0	-0.0	225228.40625	29199.296875	-4955.97998046875
0.5	-0.0	-0.0	-0.0	-0.0	-0.0	-0.0	-10.102035522460938	-6.292160987854004	-720.3389282226562	-0.0	-0.0	-0.0	-0.0	-0.0	-0.0	224162.53125	29146.771484375	-4795.91259765625
0.5005000000000001	-0.0	-0.0	-0.0	-0.0	-0.0	-0.0	-9.80302619934082	-5.873874664306641	-717.1650390625	-0.0	-0.0	-0.0	-0.0	-0.0	-0.0	223148.703125	28696.16796875	-4798.7197265625
0.501	-0.0	-0.0	-0.0	-0.0	-0.0	-0.0	-9.601632118225098	-5.453460693359375	-713.3636474609375	-0.0	-0.0	-0.0	-0.0	-0.0	-0.0	222048.609375	28648.439453125	-4803.07275390625
0.5015000000000001	-0.0	-0.0	-0.0	-0.0	-0.0	-0.0	-9.692481994628906	-4.857076644897461	-710.694091796875	-0.0	-0.0	-0.0	-0.0	-0.0	-0.0	221056.328125	28425.732421875	-4850.591796875
0.502	-0.0	-0.0	-0.0	-0.0	-0.0	-0.0	-9.98098373413086	-4.227746963500977	-706.599609375	-0.0	-0.0	-0.0	-0.0	-0.0	-0.0	219962.34375	28387.46875	-5054.79150390625
0.5025000000000001	-0.0	-0.0	-0.0	-0.0	-0.0	-0.0	-10.023408889770508	-3.710869073867798	-702.6703491210938	-0.0	-0.0	-0.0	-0.0	-0.0	-0.0	218429.515625	28390.83984375	-5051.1103515625
0.503	-0.0	-0.0	-0.0	-0.0	-0.0	-0.0	-9.780196189880373	-3.113339424133301	-698.865234375	-0.0	-0.0	-0.0	-0.0	-0.0	-0.0	217584.515625	28053.478515625	-5091.39111328125
0.5035000000000001	-0.0	-0.0	-0.0	-0.0	-0.0	-0.0	-9.758174896240234	-2.406427383422852	-696.6444091796875	-0.0	-0.0	-0.0	-0.0	-0.0	-0.0	216785.140625	28025.408203125	-5109.72216796875
0.504	-0.0	-0.0	-0.0	-0.0	-0.0	-0.0	-9.63623332977295	-1.7992358207702637	-695.2049560546875	-0.0	-0.0	-0.0	-0.0	-0.0	-0.0	215966.5625	27958.97265625	-5116.95751953125
0.5045000000000001	-0.0	-0.0	-0.0	-0.0	-0.0	-0.0	-9.580705642700195	-0.8831576108932495	-694.1134643554688	-0.0	-0.0	-0.0	-0.0	-0.0	-0.0	215362.296875	27743.71875	-5153.732421875
0.505	-0.0	-0.0	-0.0	-0.0	-0.0	-0.0	-9.348101615905762	-0.8392175436019897	-692.3239135742188	-0.0	-0.0	-0.0	-0.0	-0.0	-0.0	214665.53125	27785.13671875	-5157.28857421875
0.5055000000000001	-0.0	-0.0	-0.0	-0.0	-0.0	-0.0	-9.293020248413086	-0.3752886056900024	-689.3999633789062	-0.0	-0.0	-0.0	-0.0	-0.0	-0.0	213994.171875	27511.1015625	-5205.45166015625
0.506	-0.0	-0.0	-0.0	-0.0	-0.0	-0.0	-8.870963096618652	-0.0769829377532005	-688.9630737304688	-0.0	-0.0	-0.0	-0.0	-0.0	-0.0	213507.40625	27607.140625	-5164.1708984375
0.5065000000000001	-0.0	-0.0	-0.0	-0.0	-0.0	-0.0	-8.871575355529785	0.3527917861938476	-688.3553466796875	-0.0	-0.0	-0.0	-0.0	-0.0	-0.0	213143.015625	27577.048828125	-5211.8427734375
0.507	-0.0	-0.0	-0.0	-0.0	-0.0	-0.0	-8.99325942993164	0.6063157320022583	-688.8348999023438	-0.0	-0.0	-0.0	-0.0	-0.0	-0.0	213279.296875	27643.548828125	-5242.1533203125
0.5075000000000001	-0.0	-0.0	-0.0	-0.0	-0.0	-0.0	-8.782367706298828	0.7284867763519287	-689.4908447265625	-0.0	-0.0	-0.0	-0.0	-0.0	-0.0	213174.8125	27554.21875	-5204.96484375
0.508	-0.0	-0.0	-0.0	-0.0	-0.0	-0.0	-8.605610847473145	0.5861239433288574	-689.3580932617188	-0.0	-0.0	-0.0	-0.0	-0.0	-0.0	212959.171875	27418.310546875	-5223.02294921875
0.5085000000000001	-0.0	-0.0	-0.0	-0.0	-0.0	-0.0	-8.338813781738281	0.6658028364181519	-688.872314453125	-0.0	-0.0	-0.0	-0.0	-0.0	-0.0	212598.859375	27374.44921875	-5078.6376953125
0.509	-0.0	-0.0	-0.0	-0.0	-0.0	-0.0	-8.294727325439453	0.6234676837921143	-687.8340454101562	-0.0	-0.0	-0.0	-0.0	-0.0	-0.0	211973.25	27382.669921875	-5004.13720703125
0.5095000000000001	-0.0	-0.0	-0.0	-0.0	-0.0	-0.0	-7.741003036499023	0.462674081325531	-687.5657958984375	-0.0	-0.0	-0.0	-0.0	-0.0	-0.0	211553.28125	27130.587890625	-4877.99365234375
0.51	-0.0	-0.0	-0.0	-0.0	-0.0	-0.0	-7.084880352020264	0.4759683609008789	-688.0851440429688	-0.0	-0.0	-0.0	-0.0	-0.0	-0.0	211123.53125	26991.291015625	-4773.0712890625
0.5105000000000001	-0.0	-0.0	-0.0	-0.0	-0.0	-0.0	-6.477375507354736	-0.3952249884605407	-688.0178833007812	-0.0	-0.0	-0.0	-0.0	-0.0	-0.0	210840.71875	26894.29296875	-4453.8154296875
0.511	-0.0	-0.0	-0.0	-0.0	-0.0	-0.0	-5.821852684020996	-1.0497581958770752	-687.730712890625	-0.0	-0.0	-0.0	-0.0	-0.0	-0.0	210664.96875	26830.88671875	-4268.38330078125
0.5115000000000001	-0.0	-0.0	-0.0	-0.0	-0.0	-0.0	-5.079107761383057	-1.721434473991394	-688.1712036132812	-0.0	-0.0	-0.0	-0.0	-0.0	-0.0	210337.9375	26652.607421875	-3965.606689453125
0.512	-0.0	-0.0	-0.0	-0.0	-0.0	-0.0	-4.537403583526611	-2.327901840209961	-689.6708984375	-0.0	-0.0	-0.0	-0.0	-0.0	-0.0	210259.390625	26442.810546875	-3671.39208984375
0.5125	-0.0	-0.0	-0.0	-0.0	-0.0	-0.0	-4.216585159301758	-3.4445457458496094	-690.9710693359375	-0.0	-0.0	-0.0	-0.0	-0.0	-0.0	210356.546875	26180.490234375	-3518.118408203125
0.513	-0.0	-0.0	-0.0	-0.0	-0.0	-0.0	-3.5179500579833984	-4.42533016204834	-693.2711791992188	-0.0	-0.0	-0.0	-0.0	-0.0	-0.0	210830.03125	26545.9609375	-3354.829833984375
0.5135	-0.0	-0.0	-0.0	-0.0	-0.0	-0.0	-3.105926036834717	-5.935884475708008	-695.9404296875	-0.0	-0.0	-0.0	-0.0	-0.0	-0.0	211450.046875	26459.876953125	-3251.53564453125
0.514	-0.0	-0.0	-0.0	-0.0	-0.0	-0.0	-3.062225341796875	-6.787203311920166	-698.0928344726562	-0.0	-0.0	-0.0	-0.0	-0.0	-0.0	211934.15625	26700.09375	-3191.844482421875
0.5145	-0.0	-0.0	-0.0	-0.0	-0.0	-0.0	-2.970611810684204	-7.249543190002441	-700.747314453125	-0.0	-0.0	-0.0	-0.0	-0.0	-0.0	212717.953125	26482.091796875	-3133.109375
